<?xml version="1.0" encoding="UTF-8"?>
<svg xmlns="http://www.w3.org/2000/svg" xmlns:xlink="http://www.w3.org/1999/xlink" width="80px" height="40px" viewBox="0 0 80 40" version="1.1">
<g id="surface1">
<path style=" stroke:none;fill-rule:nonzero;fill:rgb(70.980392%,54.509804%,15.686275%);fill-opacity:1;" d="M 15.121094 25.867188 C 15.121094 25.84375 15.128906 25.757812 15.144531 25.617188 C 15.160156 25.472656 15.183594 25.300781 15.207031 25.09375 C 15.234375 24.890625 15.261719 24.667969 15.292969 24.433594 C 15.324219 24.195312 15.351562 23.972656 15.375 23.761719 C 15.398438 23.550781 15.417969 23.367188 15.4375 23.207031 C 15.453125 23.046875 15.460938 22.9375 15.460938 22.882812 C 15.429688 22.867188 15.394531 22.84375 15.347656 22.816406 C 15.304688 22.785156 15.28125 22.753906 15.28125 22.714844 C 15.28125 22.660156 15.308594 22.613281 15.359375 22.582031 C 15.414062 22.546875 15.457031 22.523438 15.496094 22.507812 C 15.511719 22.308594 15.53125 22.03125 15.554688 21.675781 C 15.578125 21.320312 15.617188 20.9375 15.664062 20.523438 C 15.714844 20.113281 15.78125 19.695312 15.871094 19.269531 C 15.957031 18.847656 16.074219 18.460938 16.21875 18.117188 C 16.363281 17.769531 16.535156 17.488281 16.738281 17.269531 C 16.941406 17.050781 17.191406 16.941406 17.488281 16.941406 C 17.785156 16.941406 18.03125 17.035156 18.226562 17.222656 C 18.421875 17.410156 18.582031 17.65625 18.707031 17.957031 C 18.828125 18.257812 18.921875 18.589844 18.988281 18.957031 C 19.050781 19.324219 19.101562 19.691406 19.132812 20.054688 C 19.167969 20.417969 19.1875 20.757812 19.195312 21.074219 C 19.203125 21.390625 19.210938 21.644531 19.21875 21.835938 C 19.226562 21.957031 19.253906 22.035156 19.304688 22.078125 C 19.355469 22.117188 19.414062 22.148438 19.472656 22.164062 C 19.535156 22.179688 19.589844 22.195312 19.636719 22.214844 C 19.6875 22.234375 19.710938 22.285156 19.710938 22.363281 C 19.710938 22.453125 19.65625 22.515625 19.546875 22.550781 C 19.4375 22.585938 19.351562 22.605469 19.289062 22.613281 C 19.328125 23.101562 19.382812 23.582031 19.449219 24.054688 C 19.519531 24.527344 19.609375 25.003906 19.722656 25.484375 C 19.738281 25.574219 19.757812 25.664062 19.785156 25.757812 C 19.8125 25.847656 19.828125 25.9375 19.828125 26.023438 C 19.828125 26.085938 19.804688 26.136719 19.761719 26.179688 C 19.71875 26.21875 19.664062 26.253906 19.597656 26.277344 C 19.527344 26.300781 19.460938 26.316406 19.390625 26.324219 C 19.324219 26.332031 19.265625 26.335938 19.21875 26.335938 C 19.042969 26.335938 18.894531 26.300781 18.773438 26.234375 C 18.652344 26.167969 18.570312 26.042969 18.53125 25.855469 C 18.425781 25.351562 18.324219 24.820312 18.222656 24.265625 C 18.136719 23.785156 18.09375 23.320312 18.09375 22.867188 C 18.09375 22.796875 18.09375 22.726562 18.097656 22.65625 C 17.769531 22.65625 17.441406 22.664062 17.109375 22.679688 C 16.777344 22.695312 16.457031 22.753906 16.152344 22.855469 C 16.144531 22.960938 16.125 23.160156 16.09375 23.453125 C 16.0625 23.746094 16.027344 24.058594 15.988281 24.394531 C 15.949219 24.730469 15.910156 25.050781 15.871094 25.359375 C 15.828125 25.664062 15.804688 25.882812 15.796875 26.011719 C 15.789062 26.066406 15.75 26.117188 15.675781 26.167969 C 15.605469 26.214844 15.527344 26.242188 15.441406 26.246094 C 15.359375 26.25 15.285156 26.222656 15.21875 26.167969 C 15.15625 26.109375 15.121094 26.011719 15.121094 25.867188 Z M 16.21875 22.316406 C 16.523438 22.246094 16.828125 22.203125 17.136719 22.191406 C 17.441406 22.179688 17.75 22.167969 18.0625 22.152344 C 18.046875 22.054688 18.042969 21.953125 18.050781 21.847656 C 18.058594 21.746094 18.0625 21.640625 18.0625 21.535156 C 18.0625 21.304688 18.058594 21.039062 18.046875 20.734375 C 18.035156 20.429688 18.015625 20.121094 17.992188 19.808594 C 17.96875 19.496094 17.941406 19.1875 17.902344 18.882812 C 17.867188 18.582031 17.824219 18.3125 17.777344 18.074219 C 17.730469 17.839844 17.679688 17.652344 17.628906 17.511719 C 17.574219 17.371094 17.515625 17.300781 17.453125 17.300781 C 17.332031 17.308594 17.21875 17.410156 17.113281 17.613281 C 17.003906 17.8125 16.90625 18.070312 16.820312 18.378906 C 16.730469 18.691406 16.652344 19.039062 16.578125 19.421875 C 16.507812 19.808594 16.445312 20.183594 16.398438 20.550781 C 16.347656 20.917969 16.308594 21.261719 16.277344 21.578125 C 16.246094 21.894531 16.226562 22.140625 16.21875 22.316406 Z M 21.027344 23.742188 C 21.027344 23.4375 21.058594 23.164062 21.125 22.914062 C 21.1875 22.667969 21.289062 22.457031 21.429688 22.285156 C 21.570312 22.113281 21.757812 21.980469 21.984375 21.882812 C 22.214844 21.789062 22.492188 21.742188 22.820312 21.742188 C 23.003906 21.742188 23.191406 21.765625 23.382812 21.8125 C 23.574219 21.863281 23.738281 21.953125 23.875 22.085938 C 23.875 22.007812 23.882812 21.847656 23.898438 21.601562 C 23.914062 21.359375 23.933594 21.074219 23.957031 20.75 C 23.980469 20.425781 24.003906 20.085938 24.03125 19.730469 C 24.054688 19.375 24.078125 19.046875 24.097656 18.742188 C 24.117188 18.4375 24.132812 18.179688 24.148438 17.972656 C 24.164062 17.765625 24.175781 17.648438 24.183594 17.621094 C 24.222656 17.507812 24.296875 17.441406 24.402344 17.417969 C 24.507812 17.398438 24.605469 17.386719 24.699219 17.386719 C 24.945312 17.386719 25.097656 17.425781 25.15625 17.503906 C 25.210938 17.582031 25.238281 17.738281 25.238281 17.972656 C 25.238281 18.828125 25.203125 19.679688 25.125 20.527344 C 25.050781 21.375 25.011719 22.226562 25.011719 23.082031 C 25.011719 23.632812 25.023438 24.1875 25.042969 24.742188 C 25.066406 25.300781 25.140625 25.847656 25.273438 26.386719 L 25.339844 26.445312 L 25.375 26.550781 L 25.285156 26.6875 C 25.136719 26.78125 24.964844 26.828125 24.769531 26.828125 L 24.746094 26.828125 C 24.546875 26.828125 24.363281 26.78125 24.195312 26.6875 C 24.132812 26.648438 24.082031 26.53125 24.042969 26.335938 C 24 26.144531 23.96875 25.929688 23.945312 25.699219 C 23.921875 25.464844 23.902344 25.242188 23.890625 25.027344 C 23.878906 24.8125 23.871094 24.660156 23.863281 24.570312 C 23.726562 24.882812 23.539062 25.152344 23.304688 25.375 C 23.066406 25.601562 22.769531 25.710938 22.410156 25.710938 C 22.128906 25.710938 21.898438 25.652344 21.71875 25.53125 C 21.539062 25.410156 21.398438 25.257812 21.300781 25.070312 C 21.199219 24.882812 21.128906 24.671875 21.089844 24.4375 C 21.046875 24.207031 21.027344 23.976562 21.027344 23.742188 Z M 21.734375 23.78125 C 21.734375 23.867188 21.746094 24 21.769531 24.179688 C 21.789062 24.351562 21.824219 24.53125 21.871094 24.703125 C 21.917969 24.882812 21.984375 25.039062 22.066406 25.171875 C 22.152344 25.3125 22.261719 25.378906 22.398438 25.378906 C 22.582031 25.289062 22.746094 25.140625 22.894531 24.929688 C 23.042969 24.722656 23.171875 24.492188 23.28125 24.238281 C 23.386719 23.988281 23.472656 23.734375 23.53125 23.484375 C 23.59375 23.230469 23.621094 23.015625 23.621094 22.828125 C 23.621094 22.601562 23.539062 22.40625 23.371094 22.257812 C 23.203125 22.101562 23 22.027344 22.765625 22.027344 C 22.695312 22.027344 22.625 22.039062 22.554688 22.070312 C 22.480469 22.09375 22.414062 22.125 22.351562 22.164062 C 22.207031 22.296875 22.09375 22.421875 22.015625 22.535156 C 21.933594 22.644531 21.875 22.761719 21.832031 22.878906 C 21.792969 23 21.765625 23.132812 21.753906 23.273438 C 21.742188 23.421875 21.734375 23.585938 21.734375 23.78125 Z M 26.574219 23.675781 C 26.574219 23.316406 26.617188 22.960938 26.699219 22.617188 C 26.785156 22.269531 26.855469 21.925781 26.914062 21.582031 C 26.929688 21.492188 26.992188 21.4375 27.097656 21.414062 C 27.207031 21.394531 27.296875 21.382812 27.371094 21.382812 C 27.5 21.382812 27.601562 21.402344 27.679688 21.441406 C 27.710938 21.457031 27.742188 21.476562 27.769531 21.496094 C 27.796875 21.515625 27.808594 21.539062 27.808594 21.570312 C 27.808594 21.90625 27.769531 22.234375 27.691406 22.554688 C 27.609375 22.875 27.570312 23.214844 27.570312 23.574219 C 27.570312 23.695312 27.578125 23.808594 27.597656 23.917969 C 27.613281 24.023438 27.628906 24.132812 27.644531 24.238281 L 27.679688 24.40625 C 27.679688 24.4375 27.683594 24.464844 27.6875 24.488281 C 27.691406 24.511719 27.695312 24.539062 27.703125 24.570312 C 27.703125 24.640625 27.65625 24.6875 27.554688 24.714844 C 27.457031 24.738281 27.367188 24.753906 27.292969 24.753906 C 27.179688 24.753906 27.078125 24.730469 26.980469 24.683594 C 26.886719 24.640625 26.808594 24.5625 26.753906 24.453125 L 26.671875 24.285156 C 26.625 24.195312 26.601562 24.09375 26.601562 23.980469 C 26.601562 23.871094 26.59375 23.769531 26.574219 23.675781 Z M 26.949219 20.148438 L 26.949219 20.035156 C 26.949219 19.851562 26.996094 19.6875 27.085938 19.542969 C 27.179688 19.398438 27.316406 19.328125 27.5 19.328125 C 27.523438 19.328125 27.546875 19.328125 27.566406 19.332031 C 27.589844 19.335938 27.609375 19.335938 27.632812 19.335938 C 27.679688 19.34375 27.742188 19.363281 27.820312 19.394531 C 27.894531 19.421875 27.933594 19.46875 27.933594 19.53125 L 27.933594 19.542969 C 27.917969 19.574219 27.90625 19.605469 27.902344 19.640625 C 27.898438 19.671875 27.890625 19.703125 27.875 19.726562 L 27.886719 19.710938 C 27.839844 19.835938 27.800781 19.929688 27.773438 20.007812 C 27.742188 20.078125 27.710938 20.140625 27.675781 20.183594 C 27.640625 20.230469 27.597656 20.261719 27.542969 20.28125 C 27.492188 20.300781 27.414062 20.3125 27.316406 20.3125 C 27.300781 20.3125 27.273438 20.308594 27.234375 20.304688 C 27.195312 20.300781 27.15625 20.292969 27.109375 20.28125 C 27.066406 20.269531 27.027344 20.253906 26.996094 20.234375 C 26.964844 20.214844 26.949219 20.1875 26.949219 20.148438 Z M 28.890625 20.09375 C 28.890625 20.039062 28.949219 19.992188 29.066406 19.953125 C 29.183594 19.914062 29.316406 19.882812 29.464844 19.855469 C 29.613281 19.832031 29.757812 19.8125 29.898438 19.800781 C 30.035156 19.789062 30.128906 19.78125 30.179688 19.773438 C 30.179688 19.664062 30.183594 19.558594 30.191406 19.453125 C 30.199219 19.34375 30.222656 19.25 30.257812 19.164062 C 30.292969 19.082031 30.347656 19.015625 30.425781 18.960938 C 30.5 18.914062 30.605469 18.886719 30.742188 18.886719 C 30.855469 18.886719 30.941406 18.898438 31 18.929688 C 31.058594 18.953125 31.121094 19.011719 31.1875 19.097656 C 31.203125 19.144531 31.210938 19.1875 31.210938 19.234375 L 31.210938 19.429688 C 31.210938 19.429688 31.207031 19.496094 31.199219 19.632812 C 31.34375 19.617188 31.488281 19.597656 31.632812 19.574219 C 31.773438 19.554688 31.917969 19.542969 32.0625 19.542969 C 32.167969 19.542969 32.238281 19.546875 32.277344 19.546875 C 32.316406 19.554688 32.355469 19.601562 32.394531 19.6875 C 32.425781 19.78125 32.390625 19.847656 32.28125 19.894531 C 32.175781 19.941406 32.046875 19.976562 31.894531 20 C 31.746094 20.023438 31.59375 20.039062 31.445312 20.054688 C 31.296875 20.0625 31.207031 20.070312 31.175781 20.070312 C 31.128906 20.742188 31.082031 21.40625 31.035156 22.070312 C 30.984375 22.726562 30.960938 23.398438 30.960938 24.078125 C 30.960938 24.382812 30.96875 24.695312 30.988281 25.023438 C 31.007812 25.34375 31.0625 25.652344 31.152344 25.941406 C 31.175781 26.03125 31.214844 26.117188 31.269531 26.195312 C 31.324219 26.273438 31.351562 26.355469 31.351562 26.445312 C 31.351562 26.5 31.332031 26.542969 31.289062 26.574219 C 31.246094 26.605469 31.195312 26.632812 31.132812 26.652344 C 31.074219 26.675781 31.011719 26.6875 30.953125 26.691406 C 30.890625 26.695312 30.839844 26.695312 30.800781 26.695312 C 30.554688 26.695312 30.367188 26.605469 30.238281 26.421875 C 30.109375 26.238281 30.019531 26.019531 29.960938 25.761719 C 29.90625 25.507812 29.875 25.242188 29.871094 24.976562 C 29.867188 24.703125 29.863281 24.484375 29.863281 24.320312 C 29.863281 23.976562 29.871094 23.625 29.886719 23.265625 C 29.898438 22.90625 29.914062 22.546875 29.933594 22.195312 C 29.953125 21.84375 29.980469 21.5 30.015625 21.164062 C 30.050781 20.828125 30.09375 20.515625 30.140625 20.226562 C 30.003906 20.242188 29.871094 20.261719 29.738281 20.28125 C 29.609375 20.300781 29.472656 20.3125 29.335938 20.3125 C 29.304688 20.3125 29.265625 20.308594 29.210938 20.304688 C 29.160156 20.300781 29.109375 20.289062 29.0625 20.273438 C 29.015625 20.257812 28.976562 20.238281 28.941406 20.210938 C 28.910156 20.183594 28.890625 20.144531 28.890625 20.09375 Z M 33.371094 22.507812 C 33.371094 22.394531 33.40625 22.320312 33.46875 22.285156 C 33.535156 22.25 33.613281 22.234375 33.710938 22.234375 C 33.871094 22.234375 33.996094 22.261719 34.078125 22.324219 C 34.164062 22.382812 34.203125 22.492188 34.203125 22.640625 C 34.203125 22.828125 34.21875 23.054688 34.246094 23.332031 C 34.273438 23.605469 34.3125 23.875 34.367188 24.132812 C 34.417969 24.394531 34.480469 24.617188 34.554688 24.804688 C 34.625 24.992188 34.699219 25.085938 34.777344 25.085938 C 34.921875 25.085938 35.050781 24.976562 35.164062 24.75 C 35.273438 24.53125 35.371094 24.257812 35.457031 23.929688 C 35.539062 23.609375 35.613281 23.257812 35.671875 22.886719 C 35.734375 22.511719 35.773438 22.179688 35.796875 21.886719 C 35.8125 21.726562 35.851562 21.609375 35.914062 21.539062 C 35.972656 21.464844 36.082031 21.429688 36.242188 21.429688 C 36.425781 21.429688 36.5625 21.507812 36.644531 21.65625 C 36.730469 21.8125 36.78125 22 36.804688 22.21875 C 36.824219 22.414062 36.835938 22.609375 36.835938 22.820312 L 36.835938 23.152344 C 36.835938 23.300781 36.835938 23.433594 36.839844 23.550781 L 37.011719 27.140625 L 37.035156 27.742188 C 37.042969 27.796875 37.046875 27.847656 37.050781 27.894531 C 37.054688 27.945312 37.058594 27.996094 37.058594 28.050781 C 37.058594 28.273438 37.011719 28.417969 36.914062 28.480469 C 36.820312 28.546875 36.664062 28.578125 36.449219 28.578125 C 36.402344 28.578125 36.34375 28.574219 36.269531 28.566406 C 36.199219 28.558594 36.128906 28.542969 36.058594 28.519531 C 35.992188 28.496094 35.933594 28.464844 35.882812 28.421875 C 35.835938 28.382812 35.808594 28.328125 35.808594 28.265625 L 35.832031 28.210938 C 35.851562 27.976562 35.863281 27.726562 35.863281 27.46875 L 35.863281 27.347656 C 35.859375 27.042969 35.847656 26.734375 35.832031 26.421875 C 35.816406 26.109375 35.800781 25.796875 35.78125 25.484375 C 35.761719 25.171875 35.75 24.871094 35.75 24.582031 C 35.695312 24.703125 35.632812 24.828125 35.5625 24.957031 C 35.488281 25.085938 35.40625 25.203125 35.308594 25.304688 C 35.214844 25.410156 35.105469 25.496094 34.984375 25.5625 C 34.863281 25.632812 34.726562 25.664062 34.574219 25.664062 C 34.351562 25.664062 34.167969 25.609375 34.023438 25.492188 C 33.878906 25.375 33.765625 25.21875 33.6875 25.03125 C 33.605469 24.84375 33.546875 24.636719 33.511719 24.402344 C 33.476562 24.171875 33.453125 23.9375 33.441406 23.707031 C 33.429688 23.472656 33.421875 23.25 33.417969 23.039062 C 33.414062 22.828125 33.398438 22.652344 33.371094 22.507812 Z M 38.257812 23.816406 C 38.257812 23.550781 38.292969 23.292969 38.367188 23.046875 C 38.4375 22.800781 38.546875 22.582031 38.691406 22.386719 C 38.835938 22.195312 39.015625 22.039062 39.234375 21.925781 C 39.449219 21.808594 39.699219 21.753906 39.984375 21.753906 C 40.160156 21.753906 40.355469 21.777344 40.570312 21.832031 C 40.78125 21.882812 40.980469 21.960938 41.167969 22.066406 C 41.355469 22.167969 41.511719 22.300781 41.636719 22.460938 C 41.761719 22.621094 41.824219 22.804688 41.824219 23.011719 C 41.824219 23.109375 41.808594 23.183594 41.777344 23.234375 C 41.742188 23.285156 41.675781 23.3125 41.574219 23.3125 L 41.507812 23.300781 C 41.621094 23.605469 41.71875 23.917969 41.800781 24.238281 C 41.882812 24.558594 41.964844 24.878906 42.042969 25.199219 C 42.074219 25.261719 42.097656 25.316406 42.113281 25.363281 C 42.128906 25.414062 42.136719 25.460938 42.136719 25.507812 C 42.136719 25.570312 42.117188 25.621094 42.082031 25.664062 C 42.046875 25.703125 42.003906 25.734375 41.945312 25.753906 C 41.890625 25.773438 41.832031 25.789062 41.769531 25.796875 C 41.710938 25.804688 41.65625 25.804688 41.609375 25.804688 C 41.441406 25.804688 41.316406 25.777344 41.230469 25.71875 C 41.148438 25.660156 41.085938 25.578125 41.050781 25.476562 C 41.011719 25.375 40.988281 25.261719 40.980469 25.136719 C 40.972656 25.007812 40.957031 24.882812 40.933594 24.75 C 40.886719 24.90625 40.828125 25.054688 40.75 25.195312 C 40.675781 25.34375 40.585938 25.472656 40.480469 25.585938 C 40.378906 25.703125 40.253906 25.792969 40.113281 25.863281 C 39.972656 25.929688 39.816406 25.964844 39.640625 25.964844 C 39.382812 25.964844 39.164062 25.890625 38.988281 25.742188 C 38.8125 25.59375 38.671875 25.410156 38.566406 25.195312 C 38.457031 24.976562 38.378906 24.746094 38.332031 24.5 C 38.28125 24.253906 38.257812 24.023438 38.257812 23.8125 Z M 39.089844 23.734375 C 39.089844 23.875 39.097656 24.03125 39.117188 24.1875 C 39.136719 24.351562 39.171875 24.507812 39.214844 24.664062 C 39.261719 24.820312 39.316406 24.96875 39.386719 25.105469 C 39.457031 25.246094 39.546875 25.367188 39.652344 25.472656 C 39.84375 25.265625 39.984375 25.015625 40.078125 24.71875 C 40.167969 24.421875 40.25 24.132812 40.324219 23.859375 C 40.394531 23.582031 40.476562 23.347656 40.570312 23.148438 C 40.660156 22.953125 40.800781 22.851562 40.992188 22.851562 C 41.113281 22.851562 41.214844 22.875 41.296875 22.917969 C 41.257812 22.820312 41.195312 22.726562 41.105469 22.632812 C 41.015625 22.542969 40.914062 22.457031 40.804688 22.382812 C 40.691406 22.304688 40.578125 22.242188 40.457031 22.195312 C 40.339844 22.144531 40.226562 22.121094 40.121094 22.121094 C 40.089844 22.121094 40.054688 22.125 40.011719 22.136719 C 39.972656 22.144531 39.9375 22.148438 39.914062 22.140625 C 39.753906 22.1875 39.625 22.265625 39.519531 22.382812 C 39.417969 22.496094 39.332031 22.632812 39.269531 22.789062 C 39.203125 22.945312 39.15625 23.105469 39.128906 23.269531 C 39.101562 23.433594 39.089844 23.585938 39.089844 23.734375 Z M 39.089844 23.734375 "/>
</g>
</svg>
